<?xml version="1.0" encoding="utf-8"?>
<!DOCTYPE svg PUBLIC "-//W3C//DTD SVG 1.1//EN" "http://www.w3.org/Graphics/SVG/1.1/DTD/svg11.dtd">
<svg version="1.1" id="Layer_1" xmlns="http://www.w3.org/2000/svg" xmlns:xlink="http://www.w3.org/1999/xlink" x="0px" y="0px"
	 viewBox="0 0 1920 1920" enable-background="new 0 0 1920 1920" xml:space="preserve">
<g id="_x23_ffffffff">
</g>
<g>
	<linearGradient id="SVGID_1_" gradientUnits="userSpaceOnUse" x1="1155.1598" y1="738.236" x2="1155.1598" y2="378.1424">
		<stop  offset="0" style="stop-color:#E6E6E6"/>
		<stop  offset="0.5918" style="stop-color:#E7E7E7"/>
		<stop  offset="0.8047" style="stop-color:#EEEEEE"/>
		<stop  offset="0.9562" style="stop-color:#FAFAFA"/>
		<stop  offset="1" style="stop-color:#FFFFFF"/>
	</linearGradient>
	<path fill="url(#SVGID_1_)" stroke="#E6E6E5" stroke-width="0.0938" d="M1450.05,536.7c-0.2001-1.3099-0.39-2.6-0.5701-3.8799
		c-3.75-28.1401-18.5599-53.9701-38.5699-73.75c-1.65-1.6301-3.23-3.3101-4.87-4.9202
		C1381.09,430.72,1350.35,414.3,1318.4399,402.46c-42.6699-15.6399-88.08-22.97-133.4099-24.1899
		c-46.79-1.05-93.8,4.36-138.92,16.9199c-48.14,13.46-94.9401,35.05-132.5399,68.49c-8.48,7.66-16.25,16.0701-23.4102,24.97
		c-6.0898,7.3301-11.0798,15.5-15.71,23.8101c-7.95,14.51-12.5699,30.65-14.48,47.05c0.0601,3.7,0.0801,7.3999,0.1001,11.11
		c-0.51,28.77,12.6799,56.1,30.77,77.83c6.4399,6.99,12.8899,13.97,20.2799,19.99c10.99,9.8301,23.4701,17.8,36.1901,25.1801
		c15.59,9.4301,32.6399,15.9401,49.5599,22.51c10.02,3.0399,19.9701,6.2799,30.13,8.84c8.88,2.51,18.0699,3.6801,27.01,5.97
		c61.26,10.8801,124.61,9.5201,185.41-3.5999c9.5199-2.3701,19.23-4.0601,28.5199-7.3c45.0601-12.8101,88.53-33.24,124.52-63.55
		c7.04-5.77,12.73-12.98,19.8-18.71c1.4-1.89,2.8199-3.77,4.3199-5.5901c12.5-14.75,22.42-31.8199,28.4-50.24
		C1449.83,567.4,1450.99,551.9299,1450.05,536.7z"/>
	<linearGradient id="SVGID_2_" gradientUnits="userSpaceOnUse" x1="1167.9906" y1="1192.2703" x2="1167.9906" y2="349.4839">
		<stop  offset="0" style="stop-color:#EFEFEF"/>
		<stop  offset="0.457" style="stop-color:#DADADB"/>
		<stop  offset="1" style="stop-color:#C5C5C7"/>
	</linearGradient>
	<path fill="url(#SVGID_2_)" stroke="#EFEFEF" stroke-width="0.0938" d="M1586.95,725c-1.4399-15.97-4.37-31.78-7.85-47.4199
		c-4.7-20.1401-10.74-39.99-18.37-59.2201c-8.01-21.12-18.1899-41.37-29.49-60.91c-9.49-15.8999-19.73-31.3599-31.16-45.9299
		c-9.97-13.01-20.84-25.3101-32.35-36.96c-11.21-11.3301-23.01-22.0601-35.4299-32.04c-53.3501-43.17-117.5901-72.42-184.89-85.48
		c-66.2001-12.7001-135.38-9.4-199.9601,9.97c-61.1399,18.25-118.1,50.5699-164.8599,94.01
		C871.5,471.09,861.12,481.9299,851.1599,493.11c-21.8298,25-40.8499,52.5-56.2,81.9401c-2.9399,5.6299-5.72,11.34-8.5,17.0499
		c-7.98,16.9801-14.84,34.5-20.36,52.4301c-8.5,26.8101-14.24,54.48-17.2799,82.4399c-0.03,0.3201-0.0901,0.95-0.1201,1.27
		c-2.35,22.6-2.9199,45.4-1.48,68.09c0.1801,4.47,0.5701,8.93,0.99,13.4c1.72,18.98,4.8,37.84,9.17,56.4
		c1.42,6.02,3.01,12,4.58,17.99c7.01,24.62,16.16,48.63,27.45,71.6c2.3401,4.7401,4.76,9.45,7.28,14.11
		c9.8601,18.49,21.1501,36.21,33.6401,53.04c20.0199,26.87,43.22,51.38,69.0399,72.75c12.7999,10.59,26.23,20.4401,40.23,29.4
		c63.75,40.98,138.67,64.34,214.4,66.99c79.41,2.84,159.4399-17.63,227.79-58.12c17.1799-10.14,33.64-21.5,49.22-33.96
		c6.7-5.3601,13.22-10.9501,19.62-16.67c27.58-25.09,51.95-53.71,72.03-85.13c2.3099-3.69,4.63-7.36,6.89-11.08
		c16.11-27.04,29.34-55.83,38.99-85.8c9.01-27.18,14.96-55.34,18.38-83.76l0.08-0.8C1590.1801,786.24,1590.62,755.42,1586.95,725z
		 M1444.98,581.95c-5.98,18.42-15.9,35.49-28.4,50.24c-1.5,1.8201-2.9199,3.7001-4.3199,5.5901
		c-7.0701,5.73-12.76,12.9399-19.8,18.71c-35.99,30.3101-79.46,50.74-124.52,63.55c-9.2899,3.24-19,4.9299-28.5199,7.3
		c-60.8,13.1199-124.15,14.4799-185.41,3.5999c-8.9401-2.2899-18.13-3.46-27.01-5.97c-10.1599-2.5601-20.11-5.8-30.13-8.84
		c-16.92-6.5699-33.97-13.08-49.5599-22.51c-12.72-7.38-25.2001-15.35-36.1901-25.1801c-7.39-6.02-13.84-13-20.2799-19.99
		c-18.0901-21.73-31.28-49.0599-30.77-77.83c-0.02-3.7101-0.04-7.41-0.1001-11.11c1.91-16.4,6.53-32.54,14.48-47.05
		c4.6301-8.3101,9.6201-16.48,15.71-23.8101c7.1602-8.8999,14.9302-17.3099,23.4102-24.97
		c37.5999-33.4399,84.3999-55.03,132.5399-68.49c45.12-12.5599,92.13-17.97,138.92-16.9199c45.33,1.22,90.74,8.55,133.4099,24.1899
		c31.91,11.8401,62.65,28.26,87.6001,51.6899c1.64,1.6101,3.22,3.29,4.87,4.9202c20.01,19.7799,34.8199,45.6099,38.5699,73.75
		c0.1801,1.2799,0.37,2.5699,0.5701,3.8799C1450.99,551.9299,1449.83,567.4,1444.98,581.95z"/>
	<linearGradient id="SVGID_3_" gradientUnits="userSpaceOnUse" x1="1167.9584" y1="1348.9191" x2="1167.9584" y2="192.5808">
		<stop  offset="0" style="stop-color:#59595B"/>
		<stop  offset="0.2701" style="stop-color:#5C5C5E"/>
		<stop  offset="0.4955" style="stop-color:#676769"/>
		<stop  offset="0.7047" style="stop-color:#78787A"/>
		<stop  offset="0.9031" style="stop-color:#909092"/>
		<stop  offset="1" style="stop-color:#9F9FA1"/>
	</linearGradient>
	<path fill="url(#SVGID_3_)" stroke="#59595B" stroke-width="0.0938" d="M1735.9102,663.0701
		C1727.84,619.24,1714.13,576.5,1696.09,535.77c-11.65-26.29-25.36-51.64-40.7799-75.9c-30.3401-47.62-67.66-90.79-110.4701-127.6
		c-20.6-17.76-42.49-34.01-65.4-48.65c-72.0499-46.1-154.5099-75.66-239.35-86.41c-105.0699-13.59-213.73,2.96-310.16,46.78
		c-67.72,30.5701-129.4199,74.3301-180.72,128.0701L749.27,372.2c-34.6101,36-64.25,76.76-88.23,120.55
		c-16.7,30.5601-30.67,62.6-41.59,95.6599c-0.07,0.4102-0.21,1.2201-0.27,1.6201c-1.96,4.3999-3.12,9.1-4.57,13.6799
		c-12.98,43.23-21.23,87.97-23.72,133.05c-1.82,29.06-1.49,58.31,1.46,87.29c1.91,22.51,5.27,44.95,10.23,67
		c5.77,28.7,14.46,56.77,24.56,84.24l0.19,0.01c18.78,49.96,44.67,97.2501,76.46,140.11c35.1199,47.4199,77.5401,89.46,125.39,124
		c70.01,50.72,151.6501,85.08,236.7101,100.3199c97.42,17.74,199.36,9.6801,292.77-23.1899c74.89-26.16,144.2799-67.89,202.48-121.8
		c37.02-34.28,69.5499-73.42,96.34-116.1799c17.9301-28.4501,33.24-58.53,45.89-89.6801c21.49-53.15,35.4601-109.49,40.2799-166.63
		c0.4102-2.63,0.6602-5.26,0.8401-7.9C1748.3,763.84,1745.5898,712.8,1735.9102,663.0701z M903.97,1231.95
		c6.2551,0.0751,12.51,0.0544,18.765,0.0901C916.48,1232.0044,910.225,1232.025,903.97,1231.95z M1587,816.69l-0.08,0.8
		c-3.42,28.42-9.37,56.58-18.38,83.76c-9.65,29.97-22.88,58.76-38.99,85.8c-2.26,3.72-4.5801,7.39-6.89,11.08
		c-20.0801,31.42-44.4501,60.04-72.03,85.13c-6.4,5.72-12.92,11.3099-19.62,16.67c-15.58,12.46-32.04,23.8199-49.22,33.96
		c-68.3501,40.49-148.38,60.96-227.79,58.12c-75.73-2.65-150.65-26.01-214.4-66.99c-14-8.96-27.4301-18.8101-40.23-29.4
		c-25.8199-21.37-49.02-45.88-69.0399-72.75c-12.49-16.83-23.78-34.55-33.6401-53.04c-2.52-4.66-4.9399-9.37-7.28-14.11
		c-11.2899-22.97-20.4399-46.98-27.45-71.6c-1.5699-5.99-3.1599-11.97-4.58-17.99c-4.37-18.56-7.4501-37.42-9.17-56.4
		c-0.4199-4.47-0.8099-8.93-0.99-13.4c-1.4399-22.69-0.87-45.49,1.48-68.09c0.03-0.3201,0.0901-0.95,0.1201-1.27
		C751.86,699.01,757.6,671.3401,766.1,644.53c5.52-17.9301,12.38-35.45,20.36-52.4301c2.78-5.71,5.5601-11.42,8.5-17.0499
		c15.3501-29.4401,34.3701-56.9401,56.2-81.9401c9.9601-11.1801,20.3401-22.02,31.4302-32.09
		c46.7599-43.4401,103.72-75.76,164.8599-94.01c64.5801-19.37,133.76-22.67,199.9601-9.97
		C1314.71,370.1,1378.95,399.35,1432.3,442.52c12.4199,9.98,24.22,20.71,35.4299,32.04c11.51,11.6499,22.38,23.95,32.35,36.96
		c11.4301,14.5701,21.67,30.03,31.16,45.9299c11.3,19.54,21.48,39.79,29.49,60.91c7.63,19.2301,13.67,39.08,18.37,59.2201
		c3.48,15.6399,6.41,31.45,7.85,47.4199C1590.62,755.42,1590.1801,786.24,1587,816.69z"/>
	<linearGradient id="SVGID_4_" gradientUnits="userSpaceOnUse" x1="369.5549" y1="1375.0658" x2="611.3073" y2="1616.8181">
		<stop  offset="0" style="stop-color:#9F9FA1"/>
		<stop  offset="0.3512" style="stop-color:#818183"/>
		<stop  offset="0.7642" style="stop-color:#646466"/>
		<stop  offset="1" style="stop-color:#59595B"/>
	</linearGradient>
	<path fill="url(#SVGID_4_)" stroke="#59595B" stroke-width="0.0938" d="M825,1335.03c-3.65-5.88-8.87-10.5-13.76-15.29
		c-10.1499-9.88-20.22-19.83-30.28-29.79c-5.53-5.25-10.6399-10.95-16.48-15.84c-7.0601-8-15.24-15.02-22.7-22.67
		c-10.6101-10.47-21.27-20.8799-31.8401-31.3899c-7.4299-7.3601-14.8599-14.7101-22.39-21.9601
		c-10.12-10.0699-20.37-20.01-30.51-30.0599c-5.24-5.14-10.23-10.6901-16.7-14.3101c-11.2401-6.64-24.89-8.5699-37.64-6.0699
		c-9.94,2.2999-19.33,7.24-26.45,14.59C448.8,1292.48,321.29,1422.65,193.88,1552.92c-11.98,12.33-24.25,24.3999-36.08,36.89
		c-14.05,15.0499-17.62,38.7-8.79,57.2699c3.32,7.54,8.8,13.87,14.92,19.3101c7.32,7.21,14.61,14.47,21.99,21.63
		c11.04,10.88,21.97,21.88,33.17,32.59c9.25,9.21,18.59,18.34,27.9,27.5c9.97,9.72,19.72,19.66,29.75,29.3201
		c8.54,8.3899,17.1,16.74,25.63,25.1399c5.23,5.13,10.45,10.28,15.66,15.4501c5.99,5.6699,11.37,12.16,18.57,16.38
		c16.13,10.09,37.82,10.13,54.07,0.27c7.1-3.9801,12.41-10.25,18.04-15.9701C542.98,1681.64,677.25,1544.59,811.49,1407.51
		c5.3101-5.39,10.99-10.6,14.73-17.28C836.1799,1373.54,835.78,1351.24,825,1335.03z"/>
</g>
</svg>
