<?xml version="1.0" encoding="UTF-8" standalone="no"?>
<svg version="1.1" xmlns="http://www.w3.org/2000/svg" xmlns:xlink="http://www.w3.org/1999/xlink" width="204.48" height="204.48">
	<path id="dp_path001" transform="matrix(1,0,0,1,-201.8,-459.193)" fill="black" d="M 586.916,459.176 L 584.415,460.893 C 577.228,461.568 570.007,461.835 562.796,462.101 C 547.719,462.581 481.679,464.267 463.76,465.344 C 447.015,466.436 430.271,467.561 413.541,468.873 C 401.315,469.829 363.179,472.649 356.347,473.244 C 353.524,473.473 350.715,473.824 347.899,474.103 C 346.677,474.273 345.445,474.185 344.215,474.175 C 343.176,474.156 342.396,473.9 341.657,473.107 C 315.359,489.153 320.832,478.304 319.505,491.032 C 318.804,496.512 317.801,501.949 316.5,507.319 C 313.981,517.412 310.848,527.335 307.348,537.129 C 302.737,549.773 297.764,562.275 292.556,574.683 C 287.639,586.54 282.669,598.376 277.799,610.252 C 277.069,612.017 276.336,613.78 275.6,615.543 C 274.98,610.789 274.293,606.045 273.716,601.285 C 272.893,593.903 272.165,586.495 272.231,579.055 C 272.355,571.612 272.737,564.164 273.829,556.792 C 274.648,551.244 278.073,533.236 278.937,529.784 C 279.44,527.277 279.963,524.667 278.877,522.236 C 278.657,521.901 278.476,521.537 278.217,521.231 C 276.629,519.345 274.035,519.195 271.763,519.036 C 267.057,518.9 247.092,519.58 241.836,520.096 C 237.583,520.545 224.387,522.956 222.043,523.599 L 201.716,539.143 C 204.175,538.392 217.66,535.528 221.947,534.923 C 227.173,534.281 232.428,533.956 237.688,533.759 C 242.284,533.625 246.884,533.588 251.481,533.692 C 252.852,533.868 255.555,533.695 256.671,534.72 C 256.785,534.825 256.849,534.973 256.94,535.1 C 257.153,536.992 254.833,547.672 254.272,551.148 C 253.453,556.639 252.531,562.111 251.853,567.62 C 250.959,575.059 250.669,582.551 250.616,590.036 C 250.639,597.58 251.303,605.1 252.1,612.596 C 252.808,618.808 253.653,625.004 254.284,631.225 C 254.677,636.124 254.98,641.031 255.14,645.943 C 255.236,649.184 256.509,658.915 256.673,660.581 C 256.613,660.716 256.553,660.845 256.637,660.804 C 256.656,660.795 256.675,660.787 256.693,660.777 C 257.195,668.401 265.079,660.327 273.392,653.924 C 273.392,653.924 273.393,653.924 273.393,653.924 C 282.005,651.349 280.625,654.045 279.487,649.772 C 279.56,649.731 279.632,649.689 279.704,649.649 C 279.839,649.576 281.483,644.005 282.377,641.723 C 284.564,636.551 286.735,631.375 288.859,626.177 C 292.408,617.6 295.847,608.977 299.247,600.34 C 303.888,588.509 308.756,576.771 313.545,565 C 318.748,552.523 323.743,539.964 328.459,527.296 C 332.117,517.304 335.437,507.191 338.253,496.929 C 339.059,493.847 339.803,490.747 340.48,487.633 C 346.169,486.987 351.865,486.405 357.564,485.853 C 370.083,484.763 428.903,479.748 445.813,478.569 C 463.679,477.404 481.565,476.668 499.463,476.235 C 514.292,475.949 559.431,475.664 567.164,475.393 C 578.156,475.017 571.384,477.235 592.089,462.245 C 593.085,461.525 590.683,460.217 590.191,459.92 C 590.179,459.917 590.168,459.915 590.156,459.911 C 590.059,459.984 589.953,460.055 589.887,460.084 C 589.769,460.135 589.645,460.179 589.517,460.219 C 589.705,460.109 589.893,460 590.081,459.891 C 589.043,459.6 587.98,459.359 586.916,459.176 Z "/>
</svg>